<svg version="1.1" id="Layer_1" xmlns="http://www.w3.org/2000/svg" xmlns:xlink="http://www.w3.org/1999/xlink" x="0px" y="0px"
	 width="100%" viewBox="0 0 2048 2048" enable-background="new 0 0 2048 2048" xml:space="preserve">
<path fill="#000000" opacity="1.000000" stroke="none" 
	d="
M1810.000000,2049.000000 
	C1206.666626,2049.000000 603.833313,2049.000000 1.000000,2049.000000 
	C1.000000,1366.333374 1.000000,683.666687 1.000000,1.000000 
	C683.666687,1.000000 1366.333374,1.000000 2049.000000,1.000000 
	C2049.000000,683.666687 2049.000000,1366.333374 2049.000000,2049.000000 
	C1969.500000,2049.000000 1890.000000,2049.000000 1810.000000,2049.000000 
M485.905121,1239.002563 
	C497.260071,1238.951660 508.615021,1238.900757 520.902771,1238.981934 
	C528.542542,1238.937256 536.182251,1238.892456 544.609253,1239.002686 
	C554.063538,1239.076050 553.003052,1239.652710 553.020142,1230.848511 
	C553.040833,1220.198120 553.010803,1209.547607 553.003662,1198.897217 
	C553.001709,1195.980591 553.003296,1193.063965 553.003296,1190.007324 
	C562.705078,1190.007324 571.682678,1190.018555 580.660278,1190.005371 
	C616.768677,1189.952271 652.877075,1189.891602 689.913208,1189.988647 
	C706.490662,1189.988647 723.068054,1189.988647 740.057129,1189.988647 
	C740.057129,1209.256348 740.057129,1227.969360 740.057129,1246.975098 
	C762.396240,1246.975098 784.319702,1246.993164 806.242920,1246.927124 
	C807.471497,1246.923462 808.697998,1246.226685 810.787598,1246.002441 
	C816.261353,1245.154297 821.839539,1244.720947 827.187439,1243.373291 
	C838.846619,1240.435059 850.478271,1237.269775 860.763000,1230.636597 
	C868.363342,1225.734985 876.459961,1221.454590 883.472595,1215.822998 
	C895.633423,1206.057129 906.132019,1194.722290 915.411377,1181.939941 
	C921.812866,1173.121704 926.691040,1163.722534 930.728821,1153.987793 
	C936.241821,1140.696655 939.256348,1126.706543 940.337952,1112.056274 
	C941.430237,1097.262451 941.134460,1082.622437 938.599976,1068.267578 
	C936.190918,1054.623779 932.555725,1040.995605 925.038757,1028.908936 
	C920.545593,1021.684387 916.337341,1014.272156 911.598938,1007.214111 
	C908.578308,1002.714661 904.821777,998.709290 900.674622,993.593506 
	C918.625244,993.593506 935.490234,993.593506 953.830994,993.593506 
	C949.955078,988.409485 947.298401,983.917419 943.751465,980.297546 
	C934.981384,971.347168 925.428589,963.318542 913.450928,958.829834 
	C910.451782,957.705933 907.369873,956.804504 904.350464,955.732178 
	C900.206848,954.260742 896.086487,952.723938 891.157104,951.027405 
	C885.790344,950.021729 880.439148,948.260498 875.053894,948.149109 
	C857.409180,947.784058 839.752014,948.019104 822.099670,948.022827 
	C816.482239,948.024048 810.864868,948.023010 806.613831,948.023010 
	C803.315002,959.520935 800.239380,970.240906 797.039551,980.311890 
	C796.683655,979.920227 796.327820,979.528625 795.546692,979.034973 
	C795.546692,979.034973 795.112549,978.982727 794.940002,978.457397 
	C794.640686,978.255981 794.341431,978.054565 793.919678,977.391724 
	C793.731384,977.095032 793.461487,976.950012 792.791077,976.322449 
	C781.891357,965.392883 768.725891,958.369629 753.728333,953.185547 
	C747.584656,951.787598 741.500183,949.651917 735.284363,949.152832 
	C724.095093,948.254578 712.781616,947.569946 701.605286,948.233521 
	C691.159180,948.853760 680.572876,950.433472 670.500732,953.223877 
	C656.658936,957.058594 643.024353,961.908203 630.702332,969.666870 
	C621.823608,975.257324 613.105225,981.132874 603.977966,986.283325 
	C600.311768,988.352173 598.119690,992.478516 592.531921,992.221375 
	C578.074585,991.556213 563.551392,992.379944 549.085632,991.812988 
	C543.457458,991.592407 540.078125,993.931885 536.854797,997.648926 
	C535.032715,999.750183 533.017090,1001.723755 531.464111,1004.009949 
	C528.136169,1008.909607 525.051819,1013.974854 521.256104,1019.296814 
	C514.412537,1030.194824 509.691132,1042.009766 506.330231,1054.376221 
	C503.343628,1065.365356 500.625000,1076.419800 501.016968,1088.894531 
	C501.016968,1122.490601 501.016968,1156.086670 501.016968,1190.167969 
	C482.304993,1190.167969 464.175964,1190.167969 445.110321,1190.021973 
	C427.412231,1190.069946 409.714142,1190.118042 391.087494,1190.015015 
	C370.172546,1190.015015 349.257599,1190.015015 328.089813,1190.015015 
	C328.089813,1187.607178 328.089813,1185.798950 328.089813,1183.990723 
	C328.089813,1122.196289 328.089844,1060.401855 328.089722,998.607422 
	C328.089722,997.441467 328.459991,996.090881 327.995239,995.155457 
	C327.389313,993.935852 326.131958,992.158508 325.135895,992.146118 
	C309.868774,991.955383 294.598511,992.013245 279.300476,992.013245 
	C279.300476,1074.620361 279.300476,1156.778687 279.300476,1239.002563 
	C302.266632,1239.002563 324.910950,1239.023438 347.555176,1238.997681 
	C380.697693,1238.960083 413.840179,1238.889038 447.895874,1238.992920 
	C451.607422,1238.939697 455.318939,1238.886353 459.954926,1238.967896 
	C468.295654,1238.925903 476.636353,1238.883911 485.905121,1239.002563 
M364.025299,965.045715 
	C358.215179,965.036804 352.375488,965.386169 346.603882,964.910217 
	C341.632172,964.500244 339.734406,966.368958 338.893372,971.118347 
	C337.813751,977.215088 336.298065,983.309326 334.195282,989.124451 
	C332.728149,993.181824 332.607849,993.927917 337.064056,993.953552 
	C345.692322,994.003235 354.321655,993.874756 363.883148,993.984192 
	C368.527802,993.986816 373.189209,994.211121 377.807312,993.862244 
	C379.266052,993.752014 381.230621,992.420288 381.888458,991.108459 
	C383.866913,987.162903 385.656555,983.049927 386.876068,978.816711 
	C388.128235,974.470215 388.621582,969.905029 389.493439,965.184265 
	C380.500000,965.184265 372.723358,965.184265 364.025299,965.045715 
M1447.593018,1068.181519 
	C1408.727905,1068.178101 1369.862915,1068.174683 1330.072632,1068.013306 
	C1301.496460,1068.013306 1272.920166,1068.013306 1244.366455,1068.013306 
	C1244.366455,1043.006714 1244.366455,1018.613770 1244.366455,993.990662 
	C1246.473755,993.990662 1248.286011,993.993225 1250.098389,993.990234 
	C1279.741821,993.941589 1309.385132,993.892273 1339.508301,993.966370 
	C1339.508301,993.966370 1339.991455,993.857666 1340.814941,994.009094 
	C1342.205566,993.958618 1343.596191,993.908142 1345.920288,993.984619 
	C1408.490723,993.997803 1471.061035,994.002441 1533.631470,994.066406 
	C1535.471436,994.068237 1537.311035,994.695679 1539.244751,995.783020 
	C1541.752930,1002.668335 1544.456665,1009.490479 1546.705688,1016.459351 
	C1548.431396,1021.807007 1549.318115,1027.425537 1551.047119,1032.771851 
	C1554.495972,1043.436401 1558.327759,1053.976562 1561.890625,1064.605103 
	C1566.889526,1079.517578 1571.754150,1094.475098 1576.743652,1109.390625 
	C1579.066650,1116.334595 1581.548584,1123.225342 1583.995361,1130.946289 
	C1586.818115,1139.952393 1589.622070,1148.964355 1592.471069,1157.961914 
	C1594.018799,1162.849731 1595.700317,1167.696045 1597.182495,1172.603027 
	C1597.458008,1173.514893 1597.257446,1174.685181 1596.960327,1175.637573 
	C1594.245483,1184.341431 1591.526855,1193.045288 1588.680054,1201.706665 
	C1584.723267,1213.744995 1580.588989,1225.725098 1576.672852,1237.776367 
	C1575.423218,1241.622192 1574.626221,1245.614990 1573.546753,1249.835205 
	C1579.736572,1249.835205 1584.869141,1249.835205 1590.928589,1249.982056 
	C1602.590698,1249.988892 1614.254272,1249.902222 1625.914185,1250.066284 
	C1628.940063,1250.109009 1631.051880,1249.428589 1631.962280,1246.377808 
	C1634.211426,1238.841919 1636.356567,1231.272949 1638.734619,1223.777832 
	C1641.596313,1214.757935 1644.634521,1205.793579 1647.633911,1196.817627 
	C1652.349243,1182.706665 1657.123901,1168.615601 1661.819946,1154.498413 
	C1665.405396,1143.720215 1668.946777,1132.927002 1672.439331,1122.118286 
	C1678.317017,1103.928833 1684.145630,1085.723389 1689.984985,1067.521484 
	C1695.476562,1050.403687 1700.917969,1033.269775 1706.457764,1016.167725 
	C1708.821167,1008.871460 1711.378052,1001.637878 1714.031982,993.831421 
	C1716.676514,993.831421 1719.820312,993.831421 1723.899170,993.975647 
	C1735.882568,993.983032 1747.904541,993.411438 1759.835449,994.207336 
	C1767.429443,994.713989 1770.663818,990.991455 1773.463257,985.151062 
	C1775.923950,980.017395 1778.008789,974.313049 1781.778564,970.280823 
	C1789.069458,962.482544 1790.968994,952.128540 1796.285156,943.500366 
	C1798.507812,939.893005 1797.408569,938.949829 1793.743408,938.957092 
	C1777.100342,938.990234 1760.457031,938.953552 1743.814331,939.040344 
	C1740.709473,939.056519 1738.139160,940.019043 1737.901367,943.907043 
	C1737.816650,945.291504 1737.148071,946.724854 1736.454834,947.974426 
	C1729.990601,959.625610 1723.463013,971.241699 1716.290405,983.148621 
	C1714.592896,986.001770 1712.895264,988.854919 1711.019775,992.007263 
	C1694.270874,992.007263 1677.158691,992.088623 1660.048706,991.935425 
	C1656.807983,991.906433 1655.686890,992.920166 1654.878174,996.094299 
	C1653.181396,1002.754517 1650.743164,1009.225037 1648.630005,1015.780090 
	C1645.397461,1025.807373 1642.182373,1035.840454 1638.255249,1046.241943 
	C1634.402466,1058.558105 1630.549683,1070.874268 1626.696899,1083.190430 
	C1626.352905,1083.069336 1626.008789,1082.948364 1625.664673,1082.827271 
	C1617.389038,1057.556274 1609.113403,1032.285400 1600.989136,1006.236389 
	C1599.990601,1002.100525 1598.991943,997.964722 1598.922363,993.974060 
	C1616.241455,993.974060 1633.560425,993.974060 1650.565796,993.974060 
	C1650.304443,991.336548 1650.073364,990.065552 1650.070435,988.793945 
	C1650.057129,982.961792 1650.489502,977.100342 1650.048828,971.303711 
	C1649.330566,961.858826 1647.897583,952.469482 1647.111450,943.027954 
	C1646.862793,940.041687 1646.021851,938.945862 1642.988403,938.970764 
	C1625.669312,939.113159 1608.348999,939.110535 1590.308350,939.171570 
	C1586.869873,941.894165 1589.345947,944.757751 1589.885864,947.744019 
	C1590.834473,952.989685 1591.444458,958.320312 1591.812622,963.641907 
	C1592.457275,972.961609 1592.812012,982.301392 1593.298462,991.831848 
	C1579.844116,991.831848 1567.229614,991.831848 1554.287109,991.831848 
	C1555.232178,989.427002 1556.416870,987.161621 1557.016602,984.750671 
	C1559.116211,976.310852 1561.010620,967.820007 1562.989624,959.350159 
	C1564.305420,953.718262 1565.779297,948.115540 1566.812622,942.432617 
	C1566.987305,941.472351 1565.512695,939.666138 1564.391113,939.163391 
	C1563.165161,938.614075 1561.464111,939.124817 1559.047729,939.019958 
	C1488.019775,939.013184 1416.991699,939.002930 1345.963745,939.005859 
	C1339.978271,939.006104 1333.992920,939.094788 1327.080811,938.985535 
	C1305.091064,938.993835 1283.101318,939.033875 1261.111816,938.976318 
	C1257.761719,938.967529 1255.526245,939.450439 1254.925049,943.542114 
	C1253.653687,952.198242 1252.228027,960.868103 1250.158813,969.360046 
	C1248.275146,977.090942 1245.456787,984.594116 1243.056274,992.179138 
	C1239.107666,992.179138 1234.557617,992.179138 1229.124146,992.022766 
	C1226.507568,992.022766 1223.890991,992.022766 1222.135864,992.022766 
	C1226.114502,974.406311 1230.041382,957.019348 1234.075562,939.157593 
	C1220.490845,939.157593 1208.244019,939.157593 1195.135986,939.026550 
	C1191.052368,939.321655 1186.846924,940.351929 1182.919800,939.701782 
	C1179.108887,939.070801 1178.259155,940.238647 1177.992432,943.459839 
	C1176.934448,956.244690 1174.205933,968.674438 1169.580566,980.643311 
	C1169.338257,981.270203 1166.771973,981.853149 1166.294312,981.398621 
	C1162.754150,978.030273 1159.469360,974.393677 1155.746460,970.199341 
	C1154.834473,969.733887 1153.910278,969.290710 1153.012573,968.799316 
	C1147.037720,965.529114 1141.068726,962.248535 1134.708130,958.313232 
	C1129.882935,956.223999 1125.221924,953.537048 1120.201660,952.157593 
	C1105.088501,948.004822 1089.602295,947.151794 1073.069092,948.044250 
	C1059.435669,948.035095 1045.801514,948.090393 1032.169067,947.970459 
	C1028.856934,947.941345 1027.366821,948.522583 1026.845459,952.470947 
	C1025.050293,966.064758 1023.266846,979.760559 1015.804321,992.018066 
	C1000.103455,992.018066 984.145569,991.994629 968.187927,992.051819 
	C966.458618,992.057983 964.731079,992.531250 962.217285,993.240540 
	C962.119995,994.393616 961.937805,995.546631 961.937622,996.699707 
	C961.924255,1078.459595 961.921143,1160.219360 961.962097,1241.979248 
	C961.962830,1243.346191 962.514038,1244.713013 963.332886,1246.792358 
	C982.436951,1246.866577 1001.543213,1247.133057 1020.643860,1246.911865 
	C1027.430908,1246.833374 1034.204224,1245.569580 1041.807007,1245.029175 
	C1044.502319,1244.570557 1047.307861,1244.444092 1049.872803,1243.592773 
	C1058.702515,1240.661865 1067.635864,1237.913940 1076.163574,1234.245239 
	C1082.453125,1231.539551 1088.171265,1227.505981 1094.853516,1224.031128 
	C1100.515503,1219.937012 1106.177490,1215.843018 1112.266113,1211.440308 
	C1112.266113,1224.503174 1112.266113,1237.186523 1112.266113,1249.859375 
	C1118.763062,1249.859375 1124.881958,1249.859375 1131.929688,1249.994629 
	C1142.082397,1250.003784 1152.236084,1250.075806 1162.386841,1249.940186 
	C1163.606689,1249.923950 1164.811523,1248.781494 1166.792480,1247.707397 
	C1166.872437,1245.718506 1167.021362,1243.729736 1167.022217,1241.740845 
	C1167.057495,1159.170654 1167.079712,1076.600464 1168.027344,993.997437 
	C1174.941284,993.997437 1181.855225,993.997437 1189.177979,993.997437 
	C1189.177979,997.405823 1189.177979,1000.204895 1189.034058,1003.915894 
	C1189.082031,1007.605347 1189.130005,1011.294861 1189.032837,1015.913086 
	C1189.081177,1022.265930 1189.129517,1028.618774 1189.033691,1035.905273 
	C1189.017944,1087.137329 1188.994507,1138.369507 1188.994507,1189.601562 
	C1188.994507,1197.082397 1189.106323,1204.563354 1189.035400,1212.766357 
	C1189.078857,1213.496338 1189.122314,1214.226196 1189.014404,1215.646362 
	C1189.064819,1216.112061 1189.115112,1216.577881 1189.034668,1217.967163 
	C1189.034668,1228.557495 1189.034668,1239.147705 1189.034668,1250.006470 
	C1206.464844,1250.006470 1223.414429,1250.034668 1240.363159,1249.927002 
	C1241.256470,1249.921387 1242.142456,1248.763306 1243.801880,1247.694580 
	C1243.878662,1245.873779 1244.020630,1244.052979 1244.022705,1242.232056 
	C1244.068604,1202.161865 1244.098877,1162.091797 1245.052612,1122.000122 
	C1271.367554,1121.943848 1297.682617,1121.887451 1324.927979,1121.962891 
	C1364.452148,1121.978394 1403.976318,1122.004028 1443.500488,1121.970581 
	C1445.026733,1121.969238 1446.552612,1121.398926 1448.836182,1120.650269 
	C1448.899902,1104.080444 1448.974854,1087.510620 1448.986694,1070.940796 
	C1448.987183,1070.263306 1448.394409,1069.585449 1447.593018,1068.181519 
M1215.500000,918.999573 
	C1222.259888,918.999573 1229.019775,918.999573 1236.436890,918.999573 
	C1235.928467,912.855713 1235.692993,907.272339 1234.962524,901.754456 
	C1233.447510,890.307190 1231.786499,878.874695 1229.845947,867.494080 
	C1229.613647,866.130981 1227.287720,864.127563 1225.909790,864.109375 
	C1209.603271,863.893433 1193.292358,863.971130 1176.983032,864.057251 
	C1175.084595,864.067322 1173.685425,864.289551 1174.506836,867.315857 
	C1178.695801,882.750549 1179.076050,898.684448 1179.874756,914.527100 
	C1180.053345,918.069702 1181.126465,919.107178 1184.543335,919.049683 
	C1194.526367,918.881775 1204.514160,918.995911 1215.500000,918.999573 
z"/>
<path fill="#EA47AF" opacity="1.000000" stroke="none" 
	d="
M795.112549,978.982727 
	C795.112549,978.982727 795.546692,979.034973 795.816833,979.367310 
	C796.445923,980.120056 796.804871,980.540466 797.163757,980.960938 
	C800.239380,970.240906 803.315002,959.520935 806.613831,948.023010 
	C810.864868,948.023010 816.482239,948.024048 822.099670,948.022827 
	C839.752014,948.019104 857.409180,947.784058 875.053894,948.149109 
	C880.439148,948.260498 885.790344,950.021729 891.734070,951.474670 
	C891.872925,956.608704 891.890259,961.394592 890.896423,965.960388 
	C889.134766,974.054016 887.069458,982.114563 884.518616,989.990417 
	C883.081787,994.426819 879.831299,998.288147 878.484009,1002.737366 
	C877.238464,1006.850830 877.449219,1011.403687 877.003174,1015.761414 
	C876.682617,1018.893433 876.565369,1022.068359 875.953735,1025.143921 
	C874.758179,1031.155884 873.280273,1037.111816 871.590210,1042.954102 
	C870.526062,1041.389038 870.107544,1039.625122 869.005371,1038.586548 
	C861.111816,1031.149170 853.719482,1022.959167 844.949280,1016.721497 
	C829.608398,1005.810425 812.365295,999.617859 792.776184,1001.471252 
	C792.335876,1003.227417 792.023987,1004.696167 792.023376,1006.165100 
	C791.999023,1067.357178 791.993713,1128.549194 792.046875,1189.741333 
	C792.048340,1191.472290 792.708923,1193.202759 793.502197,1194.965332 
	C798.414734,1194.424438 802.953430,1194.157349 807.344238,1193.207275 
	C813.944824,1191.779175 820.441956,1189.872925 826.982056,1188.593750 
	C826.565308,1191.777832 826.446350,1194.624634 825.671265,1197.279785 
	C824.100342,1202.661011 822.380432,1208.019043 820.348083,1213.240967 
	C816.913879,1222.065063 818.258240,1232.358887 811.829834,1240.291748 
	C810.671509,1241.721191 810.534180,1243.977783 809.925476,1245.852539 
	C808.697998,1246.226685 807.471497,1246.923462 806.242920,1246.927124 
	C784.319702,1246.993164 762.396240,1246.975098 740.057129,1246.975098 
	C740.057129,1227.969360 740.057129,1209.256348 740.057129,1189.988647 
	C723.068054,1189.988647 706.490662,1189.988647 689.448120,1189.517212 
	C689.233154,1186.467041 688.494873,1182.710815 689.911560,1181.521729 
	C694.950623,1177.291870 698.213806,1172.321411 699.594727,1165.986450 
	C699.768982,1165.187012 699.955017,1164.390137 700.135620,1163.592163 
	C700.666016,1164.009399 701.196411,1164.426514 701.726807,1164.843750 
	C701.726807,1166.024414 701.726807,1167.204956 701.726807,1169.475098 
	C704.519287,1165.894165 708.731079,1163.985107 704.557373,1159.491577 
	C703.990173,1158.880859 704.374146,1156.906738 704.896057,1155.849365 
	C706.883667,1151.822021 709.108276,1147.911621 710.904602,1144.586304 
	C708.786011,1142.262695 707.384460,1140.725586 706.446960,1139.108154 
	C717.836609,1139.027954 728.762207,1139.027954 740.321411,1139.027954 
	C738.786194,1114.664062 742.214600,1090.802002 738.150940,1066.821899 
	C740.928528,1061.496216 748.808411,1059.331421 746.446472,1051.576782 
	C746.381104,1051.362183 746.724060,1050.994019 746.922729,1050.732544 
	C752.134399,1043.873413 757.058533,1036.879761 759.192322,1028.304932 
	C759.462708,1027.218750 760.928711,1026.445312 761.801086,1025.490723 
	C763.866577,1023.230591 766.523254,1021.250305 767.818970,1018.606995 
	C769.895874,1014.369751 770.743713,1009.537048 772.749451,1005.255127 
	C773.794250,1003.024658 776.222473,1001.450806 777.992493,999.549316 
	C779.947998,997.448669 782.076843,995.465027 783.743774,993.151855 
	C785.659058,990.493958 787.179626,987.547363 788.817688,984.695190 
	C790.286560,982.137634 791.682190,979.537842 793.110107,976.956665 
	C793.461487,976.950012 793.731384,977.095032 794.103638,977.858582 
	C794.562561,978.544556 794.837585,978.763611 795.112549,978.982727 
z"/>
<path fill="#2EB5F3" opacity="1.000000" stroke="none" 
	d="
M1189.165771,1214.956177 
	C1189.122314,1214.226196 1189.078857,1213.496338 1189.446777,1212.320068 
	C1195.503296,1205.029541 1195.463379,1196.405151 1195.272095,1188.574829 
	C1195.116089,1182.188721 1196.167480,1176.798828 1199.122559,1171.553711 
	C1200.906372,1168.387451 1203.045898,1165.376587 1205.348877,1162.560181 
	C1207.911377,1159.426270 1209.937988,1156.591309 1207.483887,1152.284790 
	C1206.825684,1151.129517 1207.856445,1148.822388 1208.459351,1147.170776 
	C1211.074097,1140.008301 1216.256348,1133.780518 1215.304688,1125.325806 
	C1214.875977,1121.519287 1215.074463,1117.104126 1216.633667,1113.723999 
	C1219.822144,1106.811768 1219.794556,1099.488159 1221.015259,1092.314087 
	C1221.785767,1087.785034 1222.665527,1083.273193 1223.567871,1078.768066 
	C1224.315186,1075.037842 1226.401245,1071.071411 1225.691895,1067.668823 
	C1224.543335,1062.159668 1226.948730,1058.808472 1230.140869,1055.389282 
	C1232.926758,1052.405151 1234.060913,1049.035522 1232.087769,1045.366211 
	C1229.748169,1041.015259 1229.158081,1037.016968 1232.305542,1032.776855 
	C1232.935425,1031.928345 1232.681641,1030.223022 1232.460693,1028.979126 
	C1231.536255,1023.775574 1229.887085,1018.629578 1229.597290,1013.401794 
	C1229.206787,1006.356812 1229.823120,999.255981 1230.007446,992.179138 
	C1234.557617,992.179138 1239.107666,992.179138 1243.056274,992.179138 
	C1245.456787,984.594116 1248.275146,977.090942 1250.158813,969.360046 
	C1252.228027,960.868103 1253.653687,952.198242 1254.925049,943.542114 
	C1255.526245,939.450439 1257.761719,938.967529 1261.111816,938.976318 
	C1283.101318,939.033875 1305.091064,938.993835 1327.880371,939.306335 
	C1334.990723,939.771362 1341.312988,939.748535 1347.603760,940.181885 
	C1349.103149,940.285217 1351.734253,941.898071 1351.745239,942.840942 
	C1351.834717,950.592590 1353.029541,958.449219 1349.630737,965.974854 
	C1348.007080,969.569641 1346.005005,973.706604 1346.416992,977.344055 
	C1347.069580,983.107361 1347.035278,988.479553 1344.986816,993.857666 
	C1343.596191,993.908142 1342.205566,993.958618 1340.299805,993.822754 
	C1339.490479,993.477844 1339.238403,993.546753 1339.028564,993.843018 
	C1309.385132,993.892273 1279.741821,993.941589 1250.098389,993.990234 
	C1248.286011,993.993225 1246.473755,993.990662 1244.366455,993.990662 
	C1244.366455,1018.613770 1244.366455,1043.006714 1244.366455,1068.013306 
	C1272.920166,1068.013306 1301.496460,1068.013306 1330.515869,1068.474121 
	C1330.833862,1070.719482 1330.683228,1072.502686 1330.587524,1074.288696 
	C1330.264038,1080.328003 1330.438232,1086.440308 1329.541016,1092.391968 
	C1328.053467,1102.259277 1325.881348,1112.023560 1323.997559,1121.831177 
	C1297.682617,1121.887451 1271.367554,1121.943848 1244.274658,1122.288086 
	C1243.314697,1123.541992 1242.973633,1124.507812 1242.973633,1125.473633 
	C1242.973999,1166.363037 1243.004883,1207.252319 1243.031982,1248.141724 
	C1242.142456,1248.763306 1241.256470,1249.921387 1240.363159,1249.927002 
	C1223.414429,1250.034668 1206.464844,1250.006470 1189.034668,1250.006470 
	C1189.034668,1239.147705 1189.034668,1228.557495 1189.354736,1217.433716 
	C1189.505127,1216.252197 1189.335449,1215.604248 1189.165771,1214.956177 
z"/>
<path fill="#9876D0" opacity="1.000000" stroke="none" 
	d="
M963.002686,992.787842 
	C964.731079,992.531250 966.458618,992.057983 968.187927,992.051819 
	C984.145569,991.994629 1000.103455,992.018066 1015.804321,992.018066 
	C1023.266846,979.760559 1025.050293,966.064758 1026.845459,952.470947 
	C1027.366821,948.522583 1028.856934,947.941345 1032.169067,947.970459 
	C1045.801514,948.090393 1059.435669,948.035095 1073.513794,948.491943 
	C1071.512451,954.696411 1072.074097,960.717468 1071.730591,966.785278 
	C1071.086304,978.166077 1071.796875,989.914307 1066.718384,1000.705383 
	C1066.384521,1001.414795 1066.385742,1002.293213 1066.286255,1003.099731 
	C1065.834106,1006.765869 1065.401367,1010.434387 1064.598389,1014.046204 
	C1054.975586,1010.291260 1045.907837,1005.949158 1036.391479,1003.111938 
	C1029.696045,1001.115845 1022.390320,1001.166504 1015.344788,1000.301758 
	C1015.344788,1066.100952 1015.344788,1130.474976 1015.344788,1195.207153 
	C1018.186829,1194.945068 1020.704590,1194.994629 1023.083191,1194.443237 
	C1031.753662,1192.433594 1040.377563,1190.223022 1048.844482,1188.459961 
	C1048.443604,1190.286987 1048.215576,1191.741943 1047.991211,1193.197388 
	C1046.694824,1201.609497 1045.228394,1210.000244 1044.174072,1218.442505 
	C1043.630737,1222.793823 1043.962280,1227.247314 1043.630371,1231.634399 
	C1043.413452,1234.498169 1042.764771,1237.335205 1042.213135,1240.165405 
	C1041.905151,1241.745728 1041.400024,1243.287720 1040.983765,1244.846924 
	C1034.204224,1245.569580 1027.430908,1246.833374 1020.643860,1246.911865 
	C1001.543213,1247.133057 982.436951,1246.866577 963.145386,1245.969238 
	C962.989441,1214.163330 963.045349,1183.180786 963.047119,1152.198120 
	C963.050171,1099.061401 963.019348,1045.924683 963.002686,992.787842 
z"/>
<path fill="#FD91C8" opacity="1.000000" stroke="none" 
	d="
M446.982666,1238.832397 
	C413.840179,1238.889038 380.697693,1238.960083 347.555176,1238.997681 
	C324.910950,1239.023438 302.266632,1239.002563 279.300476,1239.002563 
	C279.300476,1156.778687 279.300476,1074.620361 279.300476,992.013245 
	C294.598511,992.013245 309.868774,991.955383 325.135895,992.146118 
	C326.131958,992.158508 327.389313,993.935852 327.995239,995.155457 
	C328.459991,996.090881 328.089722,997.441467 328.089722,998.607422 
	C328.089844,1060.401855 328.089813,1122.196289 328.089813,1183.990723 
	C328.089813,1185.798950 328.089813,1187.607178 328.089813,1190.015015 
	C349.257599,1190.015015 370.172546,1190.015015 391.884186,1190.309937 
	C397.915894,1190.620972 402.462372,1191.585815 405.947266,1196.339844 
	C409.312195,1200.930176 413.553619,1204.892456 417.536285,1209.008545 
	C419.132507,1210.658325 421.114655,1211.927246 422.836792,1213.463989 
	C428.671082,1218.670044 434.158112,1224.332886 440.397369,1228.991455 
	C444.009033,1231.687988 446.422852,1234.445312 446.982666,1238.832397 
z"/>
<path fill="#BE59BD" opacity="1.000000" stroke="none" 
	d="
M810.356567,1245.927490 
	C810.534180,1243.977783 810.671509,1241.721191 811.829834,1240.291748 
	C818.258240,1232.358887 816.913879,1222.065063 820.348083,1213.240967 
	C822.380432,1208.019043 824.100342,1202.661011 825.671265,1197.279785 
	C826.446350,1194.624634 826.565308,1191.777832 827.314941,1188.425293 
	C830.141113,1186.672363 832.846558,1185.824097 835.086243,1184.293823 
	C842.186279,1179.442993 849.434875,1174.721924 856.003296,1169.208740 
	C861.219543,1164.830688 866.332214,1159.897095 870.045715,1154.258301 
	C876.180603,1144.942627 882.906189,1135.715576 884.414612,1124.062256 
	C885.410706,1116.366455 887.322266,1108.756592 887.860229,1101.041016 
	C888.975830,1085.039795 885.940796,1069.652344 878.975525,1055.165894 
	C876.961975,1050.978149 874.289612,1047.107178 871.919312,1043.090942 
	C873.280273,1037.111816 874.758179,1031.155884 875.953735,1025.143921 
	C876.565369,1022.068359 876.682617,1018.893433 877.003174,1015.761414 
	C877.449219,1011.403687 877.238464,1006.850830 878.484009,1002.737366 
	C879.831299,998.288147 883.081787,994.426819 884.518616,989.990417 
	C887.069458,982.114563 889.134766,974.054016 890.896423,965.960388 
	C891.890259,961.394592 891.872925,956.608704 892.133606,951.568481 
	C896.086487,952.723938 900.206848,954.260742 904.350464,955.732178 
	C907.369873,956.804504 910.451782,957.705933 913.450928,958.829834 
	C925.428589,963.318542 934.981384,971.347168 943.751465,980.297546 
	C947.298401,983.917419 949.955078,988.409485 953.830994,993.593506 
	C935.490234,993.593506 918.625244,993.593506 900.674622,993.593506 
	C904.821777,998.709290 908.578308,1002.714661 911.598938,1007.214111 
	C916.337341,1014.272156 920.545593,1021.684387 925.038757,1028.908936 
	C932.555725,1040.995605 936.190918,1054.623779 938.599976,1068.267578 
	C941.134460,1082.622437 941.430237,1097.262451 940.337952,1112.056274 
	C939.256348,1126.706543 936.241821,1140.696655 930.728821,1153.987793 
	C926.691040,1163.722534 921.812866,1173.121704 915.411377,1181.939941 
	C906.132019,1194.722290 895.633423,1206.057129 883.472595,1215.822998 
	C876.459961,1221.454590 868.363342,1225.734985 860.763000,1230.636597 
	C850.478271,1237.269775 838.846619,1240.435059 827.187439,1243.373291 
	C821.839539,1244.720947 816.261353,1245.154297 810.356567,1245.927490 
z"/>
<path fill="#FC50AD" opacity="1.000000" stroke="none" 
	d="
M705.982910,1139.188477 
	C707.384460,1140.725586 708.786011,1142.262695 710.904602,1144.586304 
	C709.108276,1147.911621 706.883667,1151.822021 704.896057,1155.849365 
	C704.374146,1156.906738 703.990173,1158.880859 704.557373,1159.491577 
	C708.731079,1163.985107 704.519287,1165.894165 701.726807,1169.475098 
	C701.726807,1167.204956 701.726807,1166.024414 701.726807,1164.843750 
	C701.196411,1164.426514 700.666016,1164.009399 700.135620,1163.592163 
	C699.955017,1164.390137 699.768982,1165.187012 699.594727,1165.986450 
	C698.213806,1172.321411 694.950623,1177.291870 689.911560,1181.521729 
	C688.494873,1182.710815 689.233154,1186.467041 688.984253,1189.439697 
	C652.877075,1189.891602 616.768677,1189.952271 580.660278,1190.005371 
	C571.682678,1190.018555 562.705078,1190.007324 553.003296,1190.007324 
	C553.003296,1193.063965 553.001709,1195.980591 553.003662,1198.897217 
	C553.010803,1209.547607 553.040833,1220.198120 553.020142,1230.848511 
	C553.003052,1239.652710 554.063538,1239.076050 544.235474,1238.522949 
	C541.147156,1234.944092 539.017151,1230.411743 535.606079,1229.020264 
	C526.177063,1225.174194 518.256348,1219.557007 511.063049,1212.574097 
	C506.113342,1207.769287 501.072052,1203.049561 495.885712,1198.503906 
	C494.478088,1197.270142 492.468903,1196.508911 490.607788,1196.051270 
	C486.767853,1195.106812 482.221466,1195.496338 479.104767,1193.530884 
	C475.023865,1190.957397 471.030029,1191.136963 466.784485,1190.992920 
	C459.870605,1190.758179 452.959320,1190.446899 446.046936,1190.167969 
	C464.175964,1190.167969 482.304993,1190.167969 501.016968,1190.167969 
	C501.016968,1156.086670 501.016968,1122.490601 501.313110,1088.779785 
	C501.749908,1095.303711 502.162170,1101.951660 501.933716,1108.577515 
	C501.786438,1112.848145 503.449219,1114.437988 507.477020,1115.033813 
	C513.396973,1115.909302 519.329773,1116.993286 525.081787,1118.611572 
	C529.445557,1119.839233 533.474670,1122.208618 537.766235,1123.754761 
	C541.575928,1125.127319 545.532166,1126.718018 549.445251,1126.776733 
	C550.541870,1126.793091 551.714417,1121.734497 552.918091,1119.468262 
	C552.984131,1126.198853 552.984131,1132.465088 552.984131,1138.999268 
	C560.909241,1138.999268 568.216492,1138.990601 575.523743,1139.000732 
	C619.010132,1139.060913 662.496460,1139.125488 705.982910,1139.188477 
z"/>
<path fill="#3AE2FC" opacity="1.000000" stroke="none" 
	d="
M1638.959839,1045.871094 
	C1642.182373,1035.840454 1645.397461,1025.807373 1648.630005,1015.780090 
	C1650.743164,1009.225037 1653.181396,1002.754517 1654.878174,996.094299 
	C1655.686890,992.920166 1656.807983,991.906433 1660.048706,991.935425 
	C1677.158691,992.088623 1694.270874,992.007263 1711.019775,992.007263 
	C1712.895264,988.854919 1714.592896,986.001770 1716.682129,983.372925 
	C1719.037231,987.008606 1721.000610,990.419983 1722.963989,993.831421 
	C1719.820312,993.831421 1716.676514,993.831421 1714.031982,993.831421 
	C1711.378052,1001.637878 1708.821167,1008.871460 1706.457764,1016.167725 
	C1700.917969,1033.269775 1695.476562,1050.403687 1689.984985,1067.521484 
	C1684.145630,1085.723389 1678.317017,1103.928833 1672.439331,1122.118286 
	C1668.946777,1132.927002 1665.405396,1143.720215 1661.819946,1154.498413 
	C1657.123901,1168.615601 1652.349243,1182.706665 1647.633911,1196.817627 
	C1644.634521,1205.793579 1641.596313,1214.757935 1638.734619,1223.777832 
	C1636.356567,1231.272949 1634.211426,1238.841919 1631.962280,1246.377808 
	C1631.051880,1249.428589 1628.940063,1250.109009 1625.914185,1250.066284 
	C1614.254272,1249.902222 1602.590698,1249.988892 1590.464355,1249.507080 
	C1590.634521,1246.889404 1591.187866,1244.718506 1591.923462,1242.611328 
	C1592.874268,1239.887207 1594.020874,1237.231689 1594.981079,1234.510742 
	C1595.413574,1233.285034 1595.369629,1231.858521 1595.934814,1230.717773 
	C1598.936035,1224.661133 1602.423462,1218.819458 1605.050171,1212.610352 
	C1608.129517,1205.331787 1611.911011,1198.172974 1611.133301,1189.736084 
	C1610.957642,1187.830444 1612.612793,1185.817261 1613.061157,1183.773682 
	C1613.431396,1182.086426 1613.854614,1180.026123 1613.227905,1178.574219 
	C1610.977051,1173.358521 1612.603149,1170.249634 1618.348145,1168.881714 
	C1619.864624,1168.520630 1622.182983,1167.025513 1622.265137,1165.913208 
	C1622.640991,1160.822021 1624.907715,1156.808838 1627.377808,1152.476440 
	C1629.897217,1148.057617 1630.796143,1142.685669 1632.191895,1137.671875 
	C1632.662476,1135.981445 1632.415405,1134.102539 1632.613281,1132.322754 
	C1633.079224,1128.129639 1633.399170,1123.902344 1634.202881,1119.771484 
	C1634.703125,1117.201416 1636.309082,1114.851807 1636.848877,1112.283447 
	C1639.163452,1101.266724 1640.735474,1090.065796 1643.589844,1079.197754 
	C1646.733643,1067.227539 1647.379150,1056.034180 1638.959839,1045.871094 
z"/>
<path fill="#0AD0FB" opacity="1.000000" stroke="none" 
	d="
M1345.453613,993.921143 
	C1347.035278,988.479553 1347.069580,983.107361 1346.416992,977.344055 
	C1346.005005,973.706604 1348.007080,969.569641 1349.630737,965.974854 
	C1353.029541,958.449219 1351.834717,950.592590 1351.745239,942.840942 
	C1351.734253,941.898071 1349.103149,940.285217 1347.603760,940.181885 
	C1341.312988,939.748535 1334.990723,939.771362 1328.343750,939.384766 
	C1333.992920,939.094788 1339.978271,939.006104 1345.963745,939.005859 
	C1416.991699,939.002930 1488.019775,939.013184 1559.164795,939.319458 
	C1551.839600,939.753296 1544.397461,939.977356 1536.955078,939.985352 
	C1533.000488,939.989563 1532.498169,941.850586 1533.583618,945.077454 
	C1535.930786,952.055969 1538.383423,959.006714 1540.449219,966.069275 
	C1541.884033,970.975037 1544.721069,976.042114 1540.316406,981.041199 
	C1539.820923,981.603394 1540.280518,982.959290 1540.194458,983.938110 
	C1539.869385,987.638000 1539.502197,991.334045 1539.150757,995.031494 
	C1537.311035,994.695679 1535.471436,994.068237 1533.631470,994.066406 
	C1471.061035,994.002441 1408.490723,993.997803 1345.453613,993.921143 
z"/>
<path fill="#5F92E1" opacity="1.000000" stroke="none" 
	d="
M1131.000854,1249.859375 
	C1124.881958,1249.859375 1118.763062,1249.859375 1112.266113,1249.859375 
	C1112.266113,1237.186523 1112.266113,1224.503174 1112.266113,1211.440308 
	C1106.177490,1215.843018 1100.515503,1219.937012 1094.160400,1223.830322 
	C1092.990967,1222.613770 1092.191040,1221.628906 1092.090454,1220.577271 
	C1091.397339,1213.325562 1090.615845,1206.068604 1090.346558,1198.795288 
	C1090.192749,1194.642212 1090.706055,1190.415527 1091.381958,1186.297852 
	C1091.838379,1183.517212 1093.461304,1180.928345 1093.918457,1178.147827 
	C1094.560913,1174.240967 1094.506104,1170.225342 1094.934204,1166.276123 
	C1095.359985,1162.349731 1094.840576,1158.946899 1090.955078,1156.568359 
	C1093.704834,1152.250122 1097.113159,1148.591919 1099.021973,1144.271240 
	C1102.761719,1135.806030 1105.816284,1127.023560 1108.838013,1118.263184 
	C1109.968384,1114.985962 1110.216064,1111.404175 1111.219604,1108.112183 
	C1114.760498,1109.565430 1117.024902,1108.898804 1116.936646,1105.090454 
	C1116.693726,1094.589233 1119.720093,1084.675537 1121.576416,1074.499878 
	C1124.169678,1060.284180 1126.947144,1045.960938 1126.127808,1031.256470 
	C1125.723755,1024.006104 1126.709351,1016.682617 1126.978638,1009.388977 
	C1127.111084,1005.800476 1126.452515,1002.079834 1127.178833,998.635620 
	C1129.341431,988.381653 1132.122192,978.259460 1134.416138,968.030762 
	C1135.071899,965.107056 1134.893677,961.996277 1135.097778,958.971313 
	C1141.068726,962.248535 1147.037720,965.529114 1153.012573,968.799316 
	C1153.910278,969.290710 1154.834473,969.733887 1155.892822,970.939697 
	C1154.827393,976.486389 1153.008057,981.235229 1152.546265,986.112732 
	C1151.854248,993.420959 1152.211060,1000.823547 1151.900391,1008.176636 
	C1151.826782,1009.920593 1150.539062,1011.600281 1150.396851,1013.356995 
	C1150.115356,1016.835815 1150.161133,1020.349609 1150.238159,1023.845215 
	C1150.273926,1025.466797 1151.249756,1027.227539 1150.861206,1028.673096 
	C1147.874756,1039.782104 1152.443481,1051.931030 1146.166138,1062.577515 
	C1145.790649,1063.214233 1146.099121,1064.223633 1145.970947,1065.041138 
	C1145.049072,1070.916138 1144.149780,1076.795654 1143.138672,1082.655640 
	C1142.157349,1088.342529 1140.472778,1093.973755 1140.134644,1099.690674 
	C1139.618774,1108.414795 1140.021118,1117.191772 1139.966187,1125.946045 
	C1139.958130,1127.245728 1139.916260,1128.728271 1139.318359,1129.810547 
	C1136.278198,1135.313599 1134.974487,1140.728638 1138.066528,1146.788696 
	C1140.027100,1150.631348 1137.530151,1154.304932 1136.915161,1158.103516 
	C1135.717163,1165.502808 1136.414795,1173.221313 1136.466797,1180.806641 
	C1136.500854,1185.781738 1137.061401,1190.768555 1136.830444,1195.724121 
	C1136.714355,1198.215210 1135.036499,1200.598022 1134.640869,1203.120239 
	C1134.083252,1206.675415 1134.168701,1210.326294 1133.782104,1213.914917 
	C1133.237183,1218.973633 1130.644165,1223.590942 1132.631470,1229.230713 
	C1133.707520,1232.284180 1132.139038,1236.642700 1130.834839,1240.057983 
	C1129.499512,1243.555664 1128.964600,1246.615356 1131.000854,1249.859375 
z"/>
<path fill="#5599E6" opacity="1.000000" stroke="none" 
	d="
M1131.465332,1249.927002 
	C1128.964600,1246.615356 1129.499512,1243.555664 1130.834839,1240.057983 
	C1132.139038,1236.642700 1133.707520,1232.284180 1132.631470,1229.230713 
	C1130.644165,1223.590942 1133.237183,1218.973633 1133.782104,1213.914917 
	C1134.168701,1210.326294 1134.083252,1206.675415 1134.640869,1203.120239 
	C1135.036499,1200.598022 1136.714355,1198.215210 1136.830444,1195.724121 
	C1137.061401,1190.768555 1136.500854,1185.781738 1136.466797,1180.806641 
	C1136.414795,1173.221313 1135.717163,1165.502808 1136.915161,1158.103516 
	C1137.530151,1154.304932 1140.027100,1150.631348 1138.066528,1146.788696 
	C1134.974487,1140.728638 1136.278198,1135.313599 1139.318359,1129.810547 
	C1139.916260,1128.728271 1139.958130,1127.245728 1139.966187,1125.946045 
	C1140.021118,1117.191772 1139.618774,1108.414795 1140.134644,1099.690674 
	C1140.472778,1093.973755 1142.157349,1088.342529 1143.138672,1082.655640 
	C1144.149780,1076.795654 1145.049072,1070.916138 1145.970947,1065.041138 
	C1146.099121,1064.223633 1145.790649,1063.214233 1146.166138,1062.577515 
	C1152.443481,1051.931030 1147.874756,1039.782104 1150.861206,1028.673096 
	C1151.249756,1027.227539 1150.273926,1025.466797 1150.238159,1023.845215 
	C1150.161133,1020.349609 1150.115356,1016.835815 1150.396851,1013.356995 
	C1150.539062,1011.600281 1151.826782,1009.920593 1151.900391,1008.176636 
	C1152.211060,1000.823547 1151.854248,993.420959 1152.546265,986.112732 
	C1153.008057,981.235229 1154.827393,976.486389 1156.071777,971.260681 
	C1159.469360,974.393677 1162.754150,978.030273 1166.294312,981.398621 
	C1166.771973,981.853149 1169.338257,981.270203 1169.580566,980.643311 
	C1174.205933,968.674438 1176.934448,956.244690 1177.992432,943.459839 
	C1178.259155,940.238647 1179.108887,939.070801 1182.919800,939.701782 
	C1186.846924,940.351929 1191.052368,939.321655 1195.882812,939.310303 
	C1198.546753,939.909912 1200.463989,940.225769 1202.731079,940.599365 
	C1201.960449,947.231140 1201.267700,953.601562 1200.469727,959.958679 
	C1199.354980,968.838196 1197.934082,977.685730 1197.064453,986.587952 
	C1196.161621,995.829956 1195.896973,1005.132996 1195.086060,1014.385925 
	C1194.612915,1019.783997 1193.848022,1025.185669 1192.719360,1030.480225 
	C1192.362793,1032.153076 1190.403564,1033.484253 1189.177734,1034.971680 
	C1189.129517,1028.618774 1189.081177,1022.265930 1189.320557,1015.108521 
	C1189.464844,1010.537231 1189.321411,1006.770630 1189.177979,1003.003967 
	C1189.177979,1000.204895 1189.177979,997.405823 1189.177979,993.997437 
	C1181.855225,993.997437 1174.941284,993.997437 1167.207764,994.248169 
	C1166.225342,996.471436 1165.921021,998.443848 1165.920044,1000.416382 
	C1165.879639,1081.002686 1165.865356,1161.588989 1165.857422,1242.175293 
	C1165.857300,1244.170532 1165.965454,1246.165771 1166.023193,1248.161133 
	C1164.811523,1248.781494 1163.606689,1249.923950 1162.386841,1249.940186 
	C1152.236084,1250.075806 1142.082397,1250.003784 1131.465332,1249.927002 
z"/>
<path fill="#FC2994" opacity="1.000000" stroke="none" 
	d="
M521.867676,1018.972229 
	C525.051819,1013.974854 528.136169,1008.909607 531.464111,1004.009949 
	C533.017090,1001.723755 535.032715,999.750183 536.854797,997.648926 
	C540.078125,993.931885 543.457458,991.592407 549.085632,991.812988 
	C563.551392,992.379944 578.074585,991.556213 592.531921,992.221375 
	C598.119690,992.478516 600.311768,988.352173 603.977966,986.283325 
	C613.105225,981.132874 621.823608,975.257324 630.702332,969.666870 
	C643.024353,961.908203 656.658936,957.058594 670.500732,953.223877 
	C680.572876,950.433472 691.159180,948.853760 701.605286,948.233521 
	C712.781616,947.569946 724.095093,948.254578 735.284363,949.152832 
	C741.500183,949.651917 747.584656,951.787598 753.582825,953.634949 
	C749.617615,956.947754 745.576538,959.564087 742.033813,962.736755 
	C737.548584,966.753723 733.756104,971.566345 729.151978,975.423584 
	C720.457947,982.707214 709.625000,987.435791 703.119507,997.341064 
	C702.855774,997.742615 702.381470,998.005371 702.007263,998.335022 
	C697.955139,1001.904114 693.903381,1005.473633 689.486328,1009.014771 
	C680.260620,1005.541931 671.663025,1002.018616 661.909180,1000.604858 
	C649.348999,998.784424 636.923950,998.910767 624.993713,1001.449707 
	C610.626099,1004.507263 597.418335,1011.412109 585.756226,1020.886047 
	C581.892822,1020.277405 578.133423,1019.134644 574.761780,1019.841370 
	C572.273376,1020.363037 570.209595,1022.150391 567.509888,1020.442139 
	C566.923218,1020.070984 565.544617,1019.995728 565.169800,1020.390686 
	C560.431274,1025.383423 553.611877,1022.542053 548.194824,1024.990723 
	C546.156006,1025.912354 543.334717,1027.180298 541.662964,1026.457275 
	C536.074097,1024.040039 528.249390,1027.037476 524.666992,1019.611511 
	C524.407471,1019.073486 522.831543,1019.170471 521.867676,1018.972229 
z"/>
<path fill="#41A1E9" opacity="1.000000" stroke="none" 
	d="
M1189.105713,1035.438477 
	C1190.403564,1033.484253 1192.362793,1032.153076 1192.719360,1030.480225 
	C1193.848022,1025.185669 1194.612915,1019.783997 1195.086060,1014.385925 
	C1195.896973,1005.132996 1196.161621,995.829956 1197.064453,986.587952 
	C1197.934082,977.685730 1199.354980,968.838196 1200.469727,959.958679 
	C1201.267700,953.601562 1201.960449,947.231140 1202.731079,940.599365 
	C1200.463989,940.225769 1198.546753,939.909912 1196.313354,939.375793 
	C1208.244019,939.157593 1220.490845,939.157593 1234.075562,939.157593 
	C1230.041382,957.019348 1226.114502,974.406311 1222.135864,992.022766 
	C1223.890991,992.022766 1226.507568,992.022766 1229.565796,992.100952 
	C1229.823120,999.255981 1229.206787,1006.356812 1229.597290,1013.401794 
	C1229.887085,1018.629578 1231.536255,1023.775574 1232.460693,1028.979126 
	C1232.681641,1030.223022 1232.935425,1031.928345 1232.305542,1032.776855 
	C1229.158081,1037.016968 1229.748169,1041.015259 1232.087769,1045.366211 
	C1234.060913,1049.035522 1232.926758,1052.405151 1230.140869,1055.389282 
	C1226.948730,1058.808472 1224.543335,1062.159668 1225.691895,1067.668823 
	C1226.401245,1071.071411 1224.315186,1075.037842 1223.567871,1078.768066 
	C1222.665527,1083.273193 1221.785767,1087.785034 1221.015259,1092.314087 
	C1219.794556,1099.488159 1219.822144,1106.811768 1216.633667,1113.723999 
	C1215.074463,1117.104126 1214.875977,1121.519287 1215.304688,1125.325806 
	C1216.256348,1133.780518 1211.074097,1140.008301 1208.459351,1147.170776 
	C1207.856445,1148.822388 1206.825684,1151.129517 1207.483887,1152.284790 
	C1209.937988,1156.591309 1207.911377,1159.426270 1205.348877,1162.560181 
	C1203.045898,1165.376587 1200.906372,1168.387451 1199.122559,1171.553711 
	C1196.167480,1176.798828 1195.116089,1182.188721 1195.272095,1188.574829 
	C1195.463379,1196.405151 1195.503296,1205.029541 1189.512207,1211.958984 
	C1189.106323,1204.563354 1188.994507,1197.082397 1188.994507,1189.601562 
	C1188.994507,1138.369507 1189.017944,1087.137329 1189.105713,1035.438477 
z"/>
<path fill="#1BDCFC" opacity="1.000000" stroke="none" 
	d="
M1539.197754,995.407288 
	C1539.502197,991.334045 1539.869385,987.638000 1540.194458,983.938110 
	C1540.280518,982.959290 1539.820923,981.603394 1540.316406,981.041199 
	C1544.721069,976.042114 1541.884033,970.975037 1540.449219,966.069275 
	C1538.383423,959.006714 1535.930786,952.055969 1533.583618,945.077454 
	C1532.498169,941.850586 1533.000488,939.989563 1536.955078,939.985352 
	C1544.397461,939.977356 1551.839600,939.753296 1559.625977,939.396240 
	C1561.464111,939.124817 1563.165161,938.614075 1564.391113,939.163391 
	C1565.512695,939.666138 1566.987305,941.472351 1566.812622,942.432617 
	C1565.779297,948.115540 1564.305420,953.718262 1562.989624,959.350159 
	C1561.010620,967.820007 1559.116211,976.310852 1557.016602,984.750671 
	C1556.416870,987.161621 1555.232178,989.427002 1554.287109,991.831848 
	C1567.229614,991.831848 1579.844116,991.831848 1593.298462,991.831848 
	C1592.812012,982.301392 1592.457275,972.961609 1591.812622,963.641907 
	C1591.444458,958.320312 1590.834473,952.989685 1589.885864,947.744019 
	C1589.345947,944.757751 1586.869873,941.894165 1590.727051,939.517700 
	C1597.073730,949.600769 1595.410645,960.972290 1597.650024,971.499878 
	C1599.169678,978.643982 1597.974487,986.365540 1597.993408,993.828857 
	C1598.991943,997.964722 1599.990601,1002.100525 1600.569580,1006.756958 
	C1599.913208,1009.123108 1599.525391,1010.965271 1599.482788,1012.815308 
	C1599.441284,1014.616394 1599.630859,1016.446777 1599.938354,1018.226440 
	C1600.416016,1020.991211 1600.792236,1023.825989 1601.724365,1026.448730 
	C1603.622437,1031.789307 1608.140381,1037.333496 1607.444702,1042.203369 
	C1606.314087,1050.118774 1610.306763,1057.909912 1606.753174,1065.715942 
	C1604.881592,1069.826904 1604.721558,1074.681885 1603.335449,1079.057251 
	C1601.062500,1086.230957 1598.508179,1093.320068 1595.907715,1100.384155 
	C1593.467407,1107.013184 1590.852173,1113.578979 1588.238037,1120.142456 
	C1586.897095,1123.509033 1585.390259,1126.809814 1583.958374,1130.140259 
	C1581.548584,1123.225342 1579.066650,1116.334595 1576.743652,1109.390625 
	C1571.754150,1094.475098 1566.889526,1079.517578 1561.890625,1064.605103 
	C1558.327759,1053.976562 1554.495972,1043.436401 1551.047119,1032.771851 
	C1549.318115,1027.425537 1548.431396,1021.807007 1546.705688,1016.459351 
	C1544.456665,1009.490479 1541.752930,1002.668335 1539.197754,995.407288 
z"/>
<path fill="#0AD0FB" opacity="1.000000" stroke="none" 
	d="
M1324.462769,1121.896973 
	C1325.881348,1112.023560 1328.053467,1102.259277 1329.541016,1092.391968 
	C1330.438232,1086.440308 1330.264038,1080.328003 1330.587524,1074.288696 
	C1330.683228,1072.502686 1330.833862,1070.719482 1330.978516,1068.553101 
	C1369.862915,1068.174683 1408.727905,1068.178101 1447.813477,1069.017212 
	C1448.048950,1086.933228 1448.063721,1104.013428 1448.078613,1121.093750 
	C1446.552612,1121.398926 1445.026733,1121.969238 1443.500488,1121.970581 
	C1403.976318,1122.004028 1364.452148,1121.978394 1324.462769,1121.896973 
z"/>
<path fill="#2DE0FD" opacity="1.000000" stroke="none" 
	d="
M1583.976807,1130.543213 
	C1585.390259,1126.809814 1586.897095,1123.509033 1588.238037,1120.142456 
	C1590.852173,1113.578979 1593.467407,1107.013184 1595.907715,1100.384155 
	C1598.508179,1093.320068 1601.062500,1086.230957 1603.335449,1079.057251 
	C1604.721558,1074.681885 1604.881592,1069.826904 1606.753174,1065.715942 
	C1610.306763,1057.909912 1606.314087,1050.118774 1607.444702,1042.203369 
	C1608.140381,1037.333496 1603.622437,1031.789307 1601.724365,1026.448730 
	C1600.792236,1023.825989 1600.416016,1020.991211 1599.938354,1018.226440 
	C1599.630859,1016.446777 1599.441284,1014.616394 1599.482788,1012.815308 
	C1599.525391,1010.965271 1599.913208,1009.123108 1600.493896,1007.145996 
	C1609.113403,1032.285400 1617.389038,1057.556274 1625.664673,1082.827271 
	C1626.008789,1082.948364 1626.352905,1083.069336 1626.696899,1083.190430 
	C1630.549683,1070.874268 1634.402466,1058.558105 1638.607544,1046.056519 
	C1647.379150,1056.034180 1646.733643,1067.227539 1643.589844,1079.197754 
	C1640.735474,1090.065796 1639.163452,1101.266724 1636.848877,1112.283447 
	C1636.309082,1114.851807 1634.703125,1117.201416 1634.202881,1119.771484 
	C1633.399170,1123.902344 1633.079224,1128.129639 1632.613281,1132.322754 
	C1632.415405,1134.102539 1632.662476,1135.981445 1632.191895,1137.671875 
	C1630.796143,1142.685669 1629.897217,1148.057617 1627.377808,1152.476440 
	C1624.907715,1156.808838 1622.640991,1160.822021 1622.265137,1165.913208 
	C1622.182983,1167.025513 1619.864624,1168.520630 1618.348145,1168.881714 
	C1612.603149,1170.249634 1610.977051,1173.358521 1613.227905,1178.574219 
	C1613.854614,1180.026123 1613.431396,1182.086426 1613.061157,1183.773682 
	C1612.612793,1185.817261 1610.957642,1187.830444 1611.133301,1189.736084 
	C1611.911011,1198.172974 1608.129517,1205.331787 1605.050171,1212.610352 
	C1602.423462,1218.819458 1598.936035,1224.661133 1595.934814,1230.717773 
	C1595.369629,1231.858521 1595.413574,1233.285034 1594.981079,1234.510742 
	C1594.020874,1237.231689 1592.874268,1239.887207 1591.923462,1242.611328 
	C1591.187866,1244.718506 1590.634521,1246.889404 1590.000977,1249.433594 
	C1584.869141,1249.835205 1579.736572,1249.835205 1573.546753,1249.835205 
	C1574.626221,1245.614990 1575.423218,1241.622192 1576.672852,1237.776367 
	C1580.588989,1225.725098 1584.723267,1213.744995 1588.680054,1201.706665 
	C1591.526855,1193.045288 1594.245483,1184.341431 1596.960327,1175.637573 
	C1597.257446,1174.685181 1597.458008,1173.514893 1597.182495,1172.603027 
	C1595.700317,1167.696045 1594.018799,1162.849731 1592.471069,1157.961914 
	C1589.622070,1148.964355 1586.818115,1139.952393 1583.976807,1130.543213 
z"/>
<path fill="#6A8ADC" opacity="1.000000" stroke="none" 
	d="
M1134.902954,958.642273 
	C1134.893677,961.996277 1135.071899,965.107056 1134.416138,968.030762 
	C1132.122192,978.259460 1129.341431,988.381653 1127.178833,998.635620 
	C1126.452515,1002.079834 1127.111084,1005.800476 1126.978638,1009.388977 
	C1126.709351,1016.682617 1125.723755,1024.006104 1126.127808,1031.256470 
	C1126.947144,1045.960938 1124.169678,1060.284180 1121.576416,1074.499878 
	C1119.720093,1084.675537 1116.693726,1094.589233 1116.936646,1105.090454 
	C1117.024902,1108.898804 1114.760498,1109.565430 1111.272705,1107.648438 
	C1111.859741,1089.992676 1110.168579,1073.300659 1102.299683,1057.921875 
	C1098.116821,1049.746826 1093.580811,1041.443604 1087.623657,1034.567627 
	C1081.008667,1026.932251 1072.593262,1020.856750 1064.961792,1014.102051 
	C1065.401367,1010.434387 1065.834106,1006.765869 1066.286255,1003.099731 
	C1066.385742,1002.293213 1066.384521,1001.414795 1066.718384,1000.705383 
	C1071.796875,989.914307 1071.086304,978.166077 1071.730591,966.785278 
	C1072.074097,960.717468 1071.512451,954.696411 1073.977539,948.562134 
	C1089.602295,947.151794 1105.088501,948.004822 1120.201660,952.157593 
	C1125.221924,953.537048 1129.882935,956.223999 1134.902954,958.642273 
z"/>
<path fill="#F236A1" opacity="1.000000" stroke="none" 
	d="
M689.851624,1009.043152 
	C693.903381,1005.473633 697.955139,1001.904114 702.007263,998.335022 
	C702.381470,998.005371 702.855774,997.742615 703.119507,997.341064 
	C709.625000,987.435791 720.457947,982.707214 729.151978,975.423584 
	C733.756104,971.566345 737.548584,966.753723 742.033813,962.736755 
	C745.576538,959.564087 749.617615,956.947754 753.765015,953.980591 
	C768.725891,958.369629 781.891357,965.392883 792.950623,976.639526 
	C791.682190,979.537842 790.286560,982.137634 788.817688,984.695190 
	C787.179626,987.547363 785.659058,990.493958 783.743774,993.151855 
	C782.076843,995.465027 779.947998,997.448669 777.992493,999.549316 
	C776.222473,1001.450806 773.794250,1003.024658 772.749451,1005.255127 
	C770.743713,1009.537048 769.895874,1014.369751 767.818970,1018.606995 
	C766.523254,1021.250305 763.866577,1023.230591 761.801086,1025.490723 
	C760.928711,1026.445312 759.462708,1027.218750 759.192322,1028.304932 
	C757.058533,1036.879761 752.134399,1043.873413 746.922729,1050.732544 
	C746.724060,1050.994019 746.381104,1051.362183 746.446472,1051.576782 
	C748.808411,1059.331421 740.928528,1061.496216 737.818604,1066.630005 
	C729.405457,1041.000732 712.796570,1022.415344 689.851624,1009.043152 
z"/>
<path fill="#F236A1" opacity="1.000000" stroke="none" 
	d="
M521.561890,1019.134521 
	C522.831543,1019.170471 524.407471,1019.073486 524.666992,1019.611511 
	C528.249390,1027.037476 536.074097,1024.040039 541.662964,1026.457275 
	C543.334717,1027.180298 546.156006,1025.912354 548.194824,1024.990723 
	C553.611877,1022.542053 560.431274,1025.383423 565.169800,1020.390686 
	C565.544617,1019.995728 566.923218,1020.070984 567.509888,1020.442139 
	C570.209595,1022.150391 572.273376,1020.363037 574.761780,1019.841370 
	C578.133423,1019.134644 581.892822,1020.277405 585.614868,1021.201965 
	C581.875977,1025.994995 578.183105,1030.391235 574.102051,1034.391602 
	C566.702881,1041.644287 562.362244,1050.721680 558.605286,1060.067871 
	C554.105896,1071.261353 552.914551,1083.091919 553.002686,1095.092773 
	C553.061279,1103.062378 552.909668,1111.033447 552.852173,1119.003906 
	C551.714417,1121.734497 550.541870,1126.793091 549.445251,1126.776733 
	C545.532166,1126.718018 541.575928,1125.127319 537.766235,1123.754761 
	C533.474670,1122.208618 529.445557,1119.839233 525.081787,1118.611572 
	C519.329773,1116.993286 513.396973,1115.909302 507.477020,1115.033813 
	C503.449219,1114.437988 501.786438,1112.848145 501.933716,1108.577515 
	C502.162170,1101.951660 501.749908,1095.303711 501.383789,1088.313477 
	C500.625000,1076.419800 503.343628,1065.365356 506.330231,1054.376221 
	C509.691132,1042.009766 514.412537,1030.194824 521.561890,1019.134521 
z"/>
<path fill="#FD6DBB" opacity="1.000000" stroke="none" 
	d="
M445.578613,1190.094971 
	C452.959320,1190.446899 459.870605,1190.758179 466.784485,1190.992920 
	C471.030029,1191.136963 475.023865,1190.957397 479.104767,1193.530884 
	C482.221466,1195.496338 486.767853,1195.106812 490.607788,1196.051270 
	C492.468903,1196.508911 494.478088,1197.270142 495.885712,1198.503906 
	C501.072052,1203.049561 506.113342,1207.769287 511.063049,1212.574097 
	C518.256348,1219.557007 526.177063,1225.174194 535.606079,1229.020264 
	C539.017151,1230.411743 541.147156,1234.944092 543.841919,1238.445557 
	C536.182251,1238.892456 528.542542,1238.937256 520.089233,1238.700439 
	C507.857239,1238.279175 496.438751,1238.139526 484.549561,1238.008057 
	C475.729431,1238.288452 467.379974,1238.560791 459.030487,1238.833130 
	C455.318939,1238.886353 451.607422,1238.939697 447.439270,1238.912598 
	C446.422852,1234.445312 444.009033,1231.687988 440.397369,1228.991455 
	C434.158112,1224.332886 428.671082,1218.670044 422.836792,1213.463989 
	C421.114655,1211.927246 419.132507,1210.658325 417.536285,1209.008545 
	C413.553619,1204.892456 409.312195,1200.930176 405.947266,1196.339844 
	C402.462372,1191.585815 397.915894,1190.620972 392.348450,1190.385498 
	C409.714142,1190.118042 427.412231,1190.069946 445.578613,1190.094971 
z"/>
<path fill="#64E5F3" opacity="1.000000" stroke="none" 
	d="
M1723.431641,993.903564 
	C1721.000610,990.419983 1719.037231,987.008606 1717.013672,983.232544 
	C1723.463013,971.241699 1729.990601,959.625610 1736.454834,947.974426 
	C1737.148071,946.724854 1737.816650,945.291504 1737.901367,943.907043 
	C1738.139160,940.019043 1740.709473,939.056519 1743.814331,939.040344 
	C1760.457031,938.953552 1777.100342,938.990234 1793.743408,938.957092 
	C1797.408569,938.949829 1798.507812,939.893005 1796.285156,943.500366 
	C1790.968994,952.128540 1789.069458,962.482544 1781.778564,970.280823 
	C1778.008789,974.313049 1775.923950,980.017395 1773.463257,985.151062 
	C1770.663818,990.991455 1767.429443,994.713989 1759.835449,994.207336 
	C1747.904541,993.411438 1735.882568,993.983032 1723.431641,993.903564 
z"/>
<path fill="#41A1E9" opacity="1.000000" stroke="none" 
	d="
M1215.000000,918.999512 
	C1204.514160,918.995911 1194.526367,918.881775 1184.543335,919.049683 
	C1181.126465,919.107178 1180.053345,918.069702 1179.874756,914.527100 
	C1179.076050,898.684448 1178.695801,882.750549 1174.506836,867.315857 
	C1173.685425,864.289551 1175.084595,864.067322 1176.983032,864.057251 
	C1193.292358,863.971130 1209.603271,863.893433 1225.909790,864.109375 
	C1227.287720,864.127563 1229.613647,866.130981 1229.845947,867.494080 
	C1231.786499,878.874695 1233.447510,890.307190 1234.962524,901.754456 
	C1235.692993,907.272339 1235.928467,912.855713 1236.436890,918.999573 
	C1229.019775,918.999573 1222.259888,918.999573 1215.000000,918.999512 
z"/>
<path fill="#2DE0FD" opacity="1.000000" stroke="none" 
	d="
M1598.458008,993.901489 
	C1597.974487,986.365540 1599.169678,978.643982 1597.650024,971.499878 
	C1595.410645,960.972290 1597.073730,949.600769 1591.087402,939.510498 
	C1608.348999,939.110535 1625.669312,939.113159 1642.988403,938.970764 
	C1646.021851,938.945862 1646.862793,940.041687 1647.111450,943.027954 
	C1647.897583,952.469482 1649.330566,961.858826 1650.048828,971.303711 
	C1650.489502,977.100342 1650.057129,982.961792 1650.070435,988.793945 
	C1650.073364,990.065552 1650.304443,991.336548 1650.565796,993.974060 
	C1633.560425,993.974060 1616.241455,993.974060 1598.458008,993.901489 
z"/>
<path fill="#6A8ADC" opacity="1.000000" stroke="none" 
	d="
M1090.935791,1156.928955 
	C1094.840576,1158.946899 1095.359985,1162.349731 1094.934204,1166.276123 
	C1094.506104,1170.225342 1094.560913,1174.240967 1093.918457,1178.147827 
	C1093.461304,1180.928345 1091.838379,1183.517212 1091.381958,1186.297852 
	C1090.706055,1190.415527 1090.192749,1194.642212 1090.346558,1198.795288 
	C1090.615845,1206.068604 1091.397339,1213.325562 1092.090454,1220.577271 
	C1092.191040,1221.628906 1092.990967,1222.613770 1093.805664,1223.846680 
	C1088.171265,1227.505981 1082.453125,1231.539551 1076.163574,1234.245239 
	C1067.635864,1237.913940 1058.702515,1240.661865 1049.872803,1243.592773 
	C1047.307861,1244.444092 1044.502319,1244.570557 1041.395386,1244.937988 
	C1041.400024,1243.287720 1041.905151,1241.745728 1042.213135,1240.165405 
	C1042.764771,1237.335205 1043.413452,1234.498169 1043.630371,1231.634399 
	C1043.962280,1227.247314 1043.630737,1222.793823 1044.174072,1218.442505 
	C1045.228394,1210.000244 1046.694824,1201.609497 1047.991211,1193.197388 
	C1048.215576,1191.741943 1048.443604,1190.286987 1049.176147,1188.275146 
	C1059.703369,1183.835571 1068.615356,1178.139771 1076.518066,1170.914917 
	C1081.457642,1166.399170 1086.138672,1161.600586 1090.935791,1156.928955 
z"/>
<path fill="#FD91C8" opacity="1.000000" stroke="none" 
	d="
M362.950531,993.820129 
	C354.321655,993.874756 345.692322,994.003235 337.064056,993.953552 
	C332.607849,993.927917 332.728149,993.181824 334.195282,989.124451 
	C336.298065,983.309326 337.813751,977.215088 338.893372,971.118347 
	C339.734406,966.368958 341.632172,964.500244 346.603882,964.910217 
	C352.375488,965.386169 358.215179,965.036804 364.485046,965.529602 
	C364.279755,972.707092 363.546112,979.394897 362.984528,986.097168 
	C362.770264,988.654480 362.950256,991.244812 362.950531,993.820129 
z"/>
<path fill="#FD6DBB" opacity="1.000000" stroke="none" 
	d="
M363.416840,993.902161 
	C362.950256,991.244812 362.770264,988.654480 362.984528,986.097168 
	C363.546112,979.394897 364.279755,972.707092 364.945770,965.598877 
	C372.723358,965.184265 380.500000,965.184265 389.493439,965.184265 
	C388.621582,969.905029 388.128235,974.470215 386.876068,978.816711 
	C385.656555,983.049927 383.866913,987.162903 381.888458,991.108459 
	C381.230621,992.420288 379.266052,993.752014 377.807312,993.862244 
	C373.189209,994.211121 368.527802,993.986816 363.416840,993.902161 
z"/>
<path fill="#1BDCFC" opacity="1.000000" stroke="none" 
	d="
M1166.407837,1247.934204 
	C1165.965454,1246.165771 1165.857300,1244.170532 1165.857422,1242.175293 
	C1165.865356,1161.588989 1165.879639,1081.002686 1165.920044,1000.416382 
	C1165.921021,998.443848 1166.225342,996.471436 1166.745728,994.264587 
	C1167.079712,1076.600464 1167.057495,1159.170654 1167.022217,1241.740845 
	C1167.021362,1243.729736 1166.872437,1245.718506 1166.407837,1247.934204 
z"/>
<path fill="#F236A1" opacity="1.000000" stroke="none" 
	d="
M962.609985,993.014221 
	C963.019348,1045.924683 963.050171,1099.061401 963.047119,1152.198120 
	C963.045349,1183.180786 962.989441,1214.163330 962.883118,1245.612915 
	C962.514038,1244.713013 961.962830,1243.346191 961.962097,1241.979248 
	C961.921143,1160.219360 961.924255,1078.459595 961.937622,996.699707 
	C961.937805,995.546631 962.119995,994.393616 962.609985,993.014221 
z"/>
<path fill="#1BDCFC" opacity="1.000000" stroke="none" 
	d="
M1243.416992,1247.918213 
	C1243.004883,1207.252319 1242.973999,1166.363037 1242.973633,1125.473633 
	C1242.973633,1124.507812 1243.314697,1123.541992 1243.814453,1122.298828 
	C1244.098877,1162.091797 1244.068604,1202.161865 1244.022705,1242.232056 
	C1244.020630,1244.052979 1243.878662,1245.873779 1243.416992,1247.918213 
z"/>
<path fill="#1BDCFC" opacity="1.000000" stroke="none" 
	d="
M1448.457397,1120.872070 
	C1448.063721,1104.013428 1448.048950,1086.933228 1448.056152,1069.380371 
	C1448.394409,1069.585449 1448.987183,1070.263306 1448.986694,1070.940796 
	C1448.974854,1087.510620 1448.899902,1104.080444 1448.457397,1120.872070 
z"/>
<path fill="#FC50AD" opacity="1.000000" stroke="none" 
	d="
M485.020233,1238.000000 
	C496.438751,1238.139526 507.857239,1238.279175 519.622864,1238.634277 
	C508.615021,1238.900757 497.260071,1238.951660 485.452271,1238.711670 
	C484.999451,1238.420898 485.020233,1238.000000 485.020233,1238.000000 
z"/>
<path fill="#FD91C8" opacity="1.000000" stroke="none" 
	d="
M484.549561,1238.008057 
	C485.020233,1238.000000 484.999451,1238.420898 484.988281,1238.631348 
	C476.636353,1238.883911 468.295654,1238.925903 459.492706,1238.900513 
	C467.379974,1238.560791 475.729431,1238.288452 484.549561,1238.008057 
z"/>
<path fill="#41A1E9" opacity="1.000000" stroke="none" 
	d="
M1189.105957,1003.459961 
	C1189.321411,1006.770630 1189.464844,1010.537231 1189.393066,1014.644104 
	C1189.130005,1011.294861 1189.082031,1007.605347 1189.105957,1003.459961 
z"/>
<path fill="#41A1E9" opacity="1.000000" stroke="none" 
	d="
M1189.090088,1215.301270 
	C1189.335449,1215.604248 1189.505127,1216.252197 1189.420166,1216.971924 
	C1189.115112,1216.577881 1189.064819,1216.112061 1189.090088,1215.301270 
z"/>
<path fill="#F236A1" opacity="1.000000" stroke="none" 
	d="
M797.101685,980.636414 
	C796.804871,980.540466 796.445923,980.120056 796.029419,979.418335 
	C796.327820,979.528625 796.683655,979.920227 797.101685,980.636414 
z"/>
<path fill="#0AD0FB" opacity="1.000000" stroke="none" 
	d="
M1339.268433,993.904663 
	C1339.238403,993.546753 1339.490479,993.477844 1339.888184,993.747009 
	C1339.991455,993.857666 1339.508301,993.966370 1339.268433,993.904663 
z"/>
<path fill="#F236A1" opacity="1.000000" stroke="none" 
	d="
M795.026245,978.720093 
	C794.837585,978.763611 794.562561,978.544556 794.164917,978.089233 
	C794.341431,978.054565 794.640686,978.255981 795.026245,978.720093 
z"/>
<path fill="#000000" opacity="1.000000" stroke="none" 
	d="
M552.918152,1119.468262 
	C552.909668,1111.033447 553.061279,1103.062378 553.002686,1095.092773 
	C552.914551,1083.091919 554.105896,1071.261353 558.605286,1060.067871 
	C562.362244,1050.721680 566.702881,1041.644287 574.102051,1034.391602 
	C578.183105,1030.391235 581.875977,1025.994995 585.885254,1021.461243 
	C597.418335,1011.412109 610.626099,1004.507263 624.993713,1001.449707 
	C636.923950,998.910767 649.348999,998.784424 661.909180,1000.604858 
	C671.663025,1002.018616 680.260620,1005.541931 689.486328,1009.014771 
	C712.796570,1022.415344 729.405457,1041.000732 737.654785,1066.929688 
	C742.214600,1090.802002 738.786194,1114.664062 740.321411,1139.027954 
	C728.762207,1139.027954 717.836609,1139.027954 706.446899,1139.108276 
	C662.496460,1139.125488 619.010132,1139.060913 575.523743,1139.000732 
	C568.216492,1138.990601 560.909241,1138.999268 552.984131,1138.999268 
	C552.984131,1132.465088 552.984131,1126.198853 552.918152,1119.468262 
z"/>
<path fill="#000000" opacity="1.000000" stroke="none" 
	d="
M871.590149,1042.954102 
	C874.289612,1047.107178 876.961975,1050.978149 878.975525,1055.165894 
	C885.940796,1069.652344 888.975830,1085.039795 887.860229,1101.041016 
	C887.322266,1108.756592 885.410706,1116.366455 884.414612,1124.062256 
	C882.906189,1135.715576 876.180603,1144.942627 870.045715,1154.258301 
	C866.332214,1159.897095 861.219543,1164.830688 856.003296,1169.208740 
	C849.434875,1174.721924 842.186279,1179.442993 835.086243,1184.293823 
	C832.846558,1185.824097 830.141113,1186.672363 827.315918,1188.001221 
	C820.441956,1189.872925 813.944824,1191.779175 807.344238,1193.207275 
	C802.953430,1194.157349 798.414734,1194.424438 793.472656,1194.504883 
	C793.018555,1129.736328 793.034119,1065.460205 793.049683,1001.183960 
	C812.365295,999.617859 829.608398,1005.810425 844.949280,1016.721497 
	C853.719482,1022.959167 861.111816,1031.149170 869.005371,1038.586548 
	C870.107544,1039.625122 870.526062,1041.389038 871.590149,1042.954102 
z"/>
<path fill="#FC50AD" opacity="1.000000" stroke="none" 
	d="
M792.776184,1001.471252 
	C793.034119,1065.460205 793.018555,1129.736328 793.032593,1194.473022 
	C792.708923,1193.202759 792.048340,1191.472290 792.046875,1189.741333 
	C791.993713,1128.549194 791.999023,1067.357178 792.023376,1006.165100 
	C792.023987,1004.696167 792.335876,1003.227417 792.776184,1001.471252 
z"/>
<path fill="#000000" opacity="1.000000" stroke="none" 
	d="
M1090.955078,1156.568359 
	C1086.138672,1161.600586 1081.457642,1166.399170 1076.518066,1170.914917 
	C1068.615356,1178.139771 1059.703369,1183.835571 1049.350708,1187.903320 
	C1040.377563,1190.223022 1031.753662,1192.433594 1023.083191,1194.443237 
	C1020.704590,1194.994629 1018.186829,1194.945068 1015.344788,1195.207153 
	C1015.344788,1130.474976 1015.344788,1066.100952 1015.344788,1000.301758 
	C1022.390320,1001.166504 1029.696045,1001.115845 1036.391479,1003.111938 
	C1045.907837,1005.949158 1054.975586,1010.291260 1064.598389,1014.046204 
	C1072.593262,1020.856750 1081.008667,1026.932251 1087.623657,1034.567627 
	C1093.580811,1041.443604 1098.116821,1049.746826 1102.299683,1057.921875 
	C1110.168579,1073.300659 1111.859741,1089.992676 1110.919434,1107.497559 
	C1110.216064,1111.404175 1109.968384,1114.985962 1108.838013,1118.263184 
	C1105.816284,1127.023560 1102.761719,1135.806030 1099.021973,1144.271240 
	C1097.113159,1148.591919 1093.704834,1152.250122 1090.955078,1156.568359 
z"/>
</svg>